<?xml version="1.0" encoding="UTF-8"?>
<svg version="1.1" xmlns="http://www.w3.org/2000/svg" width="500" height="500">
<path d="M0 0 C165 0 330 0 500 0 C500 165 500 330 500 500 C335 500 170 500 0 500 C0 335 0 170 0 0 Z " fill="#ECECEC" transform="translate(0,0)"/>
<path d="M0 0 C2.44959987 2.44959987 2.98546831 4.41448386 4.1003418 7.69506836 C4.51282166 8.89914841 4.92530151 10.10322845 5.35028076 11.34379578 C5.80000843 12.67578419 6.24965194 14.00780103 6.69921875 15.33984375 C7.17037146 16.72148498 7.6420826 18.10293589 8.11431885 19.48420715 C9.12034679 22.43013501 10.12284165 25.37723158 11.12252808 28.32531738 C12.69316134 32.95681593 14.27152516 37.58565298 15.85180664 42.21386719 C16.11343818 42.98015882 16.37506971 43.74645046 16.64462948 44.53596306 C17.17189049 46.08021134 17.69917663 47.62445105 18.22648811 49.1686821 C19.01615785 51.48202974 19.80508343 53.79563005 20.59385681 56.10928345 C24.65224824 68.00934558 28.7738502 79.88634709 32.9375 91.75 C38.004154 106.20008815 42.96249957 120.68432557 47.875 135.1875 C55.12904072 156.60138717 62.61150553 177.93193002 70.23373413 199.21751404 C71.74992735 203.45589136 73.2446839 207.69872775 74.68261719 211.96435547 C74.94718719 212.74062286 75.2117572 213.51689026 75.48434448 214.31668091 C75.96975904 215.74516763 76.44778066 217.17620099 76.91629028 218.61032104 C79.37279425 225.79875656 83.70513433 231.52083653 90.5 235.0625 C91.325 235.371875 92.15 235.68125 93 236 C93 236.33 93 236.66 93 237 C61.65 237 30.3 237 -2 237 C-1.01 236.34 -0.02 235.68 1 235 C6.44785142 231.02760834 9.28285921 227.50816115 10.3581543 220.74853516 C11.0007123 209.6728374 6.60030536 199.6874581 2.9375 189.4375 C2.21212564 187.36605913 1.48843618 185.29402753 0.76635742 183.22143555 C-0.7264976 178.9452601 -2.22972871 174.67294611 -3.74121094 170.40332031 C-5.93335928 164.20372063 -8.08468799 157.99055409 -10.2265625 151.7734375 C-11.54587038 147.95277741 -12.86653026 144.13258579 -14.1875 140.3125 C-14.49656281 139.41747772 -14.80562561 138.52245544 -15.12405396 137.60031128 C-19.62094078 120.51944547 -19.62094078 120.51944547 -29 107 C-33.0625024 106.65425512 -35.46117165 107.07389904 -39 109 C-37.02408751 101.27641855 -34.614552 93.81410569 -31.859375 86.3359375 C-31.45985123 85.24042068 -31.06032745 84.14490387 -30.6486969 83.01618958 C-29.35338667 79.46755436 -28.05180431 75.92125742 -26.75 72.375 C-25.85272545 69.92111993 -24.95583751 67.46709846 -24.05932617 65.01293945 C-22.24884581 60.05900378 -20.43582275 55.10601048 -18.62060547 50.15380859 C-16.20000948 43.54898403 -13.78808184 36.94102846 -11.37890625 30.33203125 C-10.34831341 27.50677976 -9.31749137 24.68161207 -8.28649902 21.85650635 C-7.6390923 20.08244641 -6.99187437 18.30831757 -6.34484863 16.53411865 C-5.45639577 14.09911469 -4.56635377 11.66469814 -3.67578125 9.23046875 C-3.41632217 8.51856888 -3.1568631 7.80666901 -2.88954163 7.07319641 C-1.11467686 2.22935373 -1.11467686 2.22935373 0 0 Z " fill="#1A1A1A" transform="translate(259,101)"/>
<path d="M0 0 C0.33 0 0.66 0 1 0 C1.17015625 1.07378906 1.3403125 2.14757812 1.515625 3.25390625 C1.75970535 4.69022523 2.00453729 6.12641662 2.25 7.5625 C2.35957031 8.26697266 2.46914062 8.97144531 2.58203125 9.69726562 C3.57805439 15.38508198 5.15957046 20.7778159 9.90234375 24.48828125 C16.43962875 27.13581894 23.01253171 28.17921547 30 29 C30 29.33 30 29.66 30 30 C28.92621094 30.17015625 27.85242188 30.3403125 26.74609375 30.515625 C25.30977477 30.75970535 23.87358338 31.00453729 22.4375 31.25 C21.73302734 31.35957031 21.02855469 31.46914063 20.30273438 31.58203125 C14.28043111 32.63662813 9.21823101 34.33717685 5.16796875 39.19921875 C3.58266687 43.00076205 2.93479982 46.75564925 2.3125 50.8125 C2.18294922 51.60076172 2.05339844 52.38902344 1.91992188 53.20117188 C1.60387031 55.13259813 1.30063711 57.06611445 1 59 C-1.66345944 56.33654056 -1.42066792 54.58664012 -1.8125 50.875 C-2.67187615 44.98306505 -3.67658553 40.28113169 -8 36 C-13.97104016 31.99928295 -21.00847322 30.99318885 -28 30 C-25.03039305 28.02026203 -23.71680218 27.6487388 -20.3125 27.125 C-14.84201026 26.07083263 -9.42004549 24.93069729 -5.72265625 20.453125 C-2.21522889 14.25887592 -1.28158403 6.91278659 0 0 Z " fill="#212121" transform="translate(206,237)"/>
<path d="M0 0 C0.66 0.33 1.32 0.66 2 1 C2.63033192 9.36540505 0.36616783 16.08817432 -2.375 23.9375 C-2.7875 25.16791016 -3.2 26.39832031 -3.625 27.66601562 C-6.71152491 36.71152491 -6.71152491 36.71152491 -9 39 C-8.855625 38.32453125 -8.71125 37.6490625 -8.5625 36.953125 C-8.376875 36.06109375 -8.19125 35.1690625 -8 34.25 C-7.814375 33.36828125 -7.62875 32.4865625 -7.4375 31.578125 C-6.88846325 28.77856035 -6.88846325 28.77856035 -7 25 C-9.97 25 -12.94 25 -16 25 C-17.2930106 27.24923704 -18.58444977 29.49935185 -19.875 31.75 C-20.23980469 32.38421875 -20.60460937 33.0184375 -20.98046875 33.671875 C-22.7396831 36.74250368 -24.46873374 39.80851875 -26 43 C-26.66 43 -27.32 43 -28 43 C-27.71125 42.195625 -27.4225 41.39125 -27.125 40.5625 C-25.81642821 36.41868933 -24.88782235 32.25021337 -24 28 C-23.34 28.66 -22.68 29.32 -22 30 C-21.75765625 29.46890625 -21.5153125 28.9378125 -21.265625 28.390625 C-20.93046875 27.68421875 -20.5953125 26.9778125 -20.25 26.25 C-19.92515625 25.55390625 -19.6003125 24.8578125 -19.265625 24.140625 C-17.80666094 21.67299442 -16.02608779 20.02608779 -14 18 C-12.08777964 15.32152318 -10.25437943 12.6117901 -8.44335938 9.86523438 C-5.92237481 6.12089508 -3.26320318 3.07903651 0 0 Z " fill="#ACACAC" transform="translate(190,303)"/>
<path d="M0 0 C0.66 0.33 1.32 0.66 2 1 C1.25556641 2.14662109 1.25556641 2.14662109 0.49609375 3.31640625 C-8.18307367 17.00215223 -17.83199398 33.27895026 -17 50 C-16.67 50.66 -16.34 51.32 -16 52 C-16.99 51.67 -17.98 51.34 -19 51 C-20.49959749 34.97096901 -12.05126608 15.71768109 -2.5 2.9375 C-1.675 1.968125 -0.85 0.99875 0 0 Z " fill="#484848" transform="translate(204,301)"/>
<path d="M0 0 C0.33 0.66 0.66 1.32 1 2 C0.67 2.66 0.34 3.32 0 4 C2.31 4.33 4.62 4.66 7 5 C7 5.33 7 5.66 7 6 C6.443125 5.90976562 5.88625 5.81953125 5.3125 5.7265625 C2.38627347 5.59804579 0.69674441 5.78709023 -2 7 C-5.31691251 11.37203866 -7.64457834 16.05756846 -10 21 C-10.66581565 22.3337585 -11.33199094 23.66733871 -12 25 C-12.66 25 -13.32 25 -14 25 C-13.71125 24.195625 -13.4225 23.39125 -13.125 22.5625 C-11.81642821 18.41868933 -10.88782235 14.25021337 -10 10 C-9.34 10.66 -8.68 11.32 -8 12 C-7.75765625 11.46890625 -7.5153125 10.9378125 -7.265625 10.390625 C-5.30587441 6.26007376 -3.53371028 3.02889453 0 0 Z " fill="#5B5B5B" transform="translate(176,321)"/>
<path d="M0 0 C-0.4793247 4.31392226 -1.7457985 6.16569547 -5 9 C-5 8.01 -5 7.02 -5 6 C-6.32 5.34 -7.64 4.68 -9 4 C-9 3.01 -9 2.02 -9 1 C-5.92677456 0.08941469 -3.19902639 -0.08886184 0 0 Z " fill="#BBBBBB" transform="translate(172,325)"/>
<path d="M0 0 C2.09678815 3.40728075 2.4133256 6.03207421 2 10 C0.6875 12.375 0.6875 12.375 -1 14 C-1.99 14 -2.98 14 -4 14 C-3.125 9.125 -3.125 9.125 -2 8 C-1.835 6.845 -1.67 5.69 -1.5 4.5 C-1 1 -1 1 0 0 Z " fill="#5A5A5A" transform="translate(205,337)"/>
<path d="M0 0 C0.66 0 1.32 0 2 0 C1.71125 0.70125 1.4225 1.4025 1.125 2.125 C-0.02133588 5.05452503 -1.02625654 8.00921653 -2 11 C-0.35 11 1.3 11 3 11 C2.34 11.66 1.68 12.32 1 13 C-1.625 12.625 -1.625 12.625 -4 12 C-3.53680089 7.27536912 -2.90108294 3.82942948 0 0 Z " fill="#585858" transform="translate(200,321)"/>
<path d="M0 0 C0.66 0.33 1.32 0.66 2 1 C-2.455 7.93 -2.455 7.93 -7 15 C-7.33 14.01 -7.66 13.02 -8 12 C-6.6015625 9.3359375 -6.6015625 9.3359375 -4.625 6.375 C-3.97789062 5.39273437 -3.33078125 4.41046875 -2.6640625 3.3984375 C-1 1 -1 1 0 0 Z " fill="#383838" transform="translate(204,301)"/>
<path d="M0 0 C0.33 0.66 0.66 1.32 1 2 C0.67 2.66 0.34 3.32 0 4 C0.598125 3.649375 1.19625 3.29875 1.8125 2.9375 C4 2 4 2 7 3 C6.16855469 3.39832031 6.16855469 3.39832031 5.3203125 3.8046875 C4.59585938 4.15789062 3.87140625 4.51109375 3.125 4.875 C2.40570313 5.22304688 1.68640625 5.57109375 0.9453125 5.9296875 C-1.15135019 6.96557543 -1.15135019 6.96557543 -3 9 C-3 3 -3 3 -1.5 1.3125 C-0.7575 0.6628125 -0.7575 0.6628125 0 0 Z " fill="#616161" transform="translate(209,327)"/>
<path d="M0 0 C1.46726798 3.81489674 0.43336419 6.29011622 -1 10 C-1.99 10 -2.98 10 -4 10 C-3.52449439 8.51965236 -3.04448784 7.04074979 -2.5625 5.5625 C-2.29566406 4.73878906 -2.02882812 3.91507812 -1.75390625 3.06640625 C-1 1 -1 1 0 0 Z " fill="#E4E4E4" transform="translate(188,327)"/>
<path d="M0 0 C0.33 0 0.66 0 1 0 C1.125 2.375 1.125 2.375 1 5 C0.34 5.66 -0.32 6.32 -1 7 C-1.99 7 -2.98 7 -4 7 C-3.67 5.35 -3.34 3.7 -3 2 C-2.34 2 -1.68 2 -1 2 C-0.67 1.34 -0.34 0.68 0 0 Z " fill="#2F2F2F" transform="translate(205,344)"/>
</svg>
