<svg id="svg" version="1.1" xmlns="http://www.w3.org/2000/svg" xmlns:xlink="http://www.w3.org/1999/xlink" width="400" height="400" viewBox="0, 0, 400,400"><g id="svgg"><path id="path0" d="M207.010 82.700 C 206.859 83.085,205.208 87.630,203.343 92.800 C 201.477 97.970,199.602 103.145,199.175 104.300 C 198.749 105.455,198.052 107.345,197.626 108.500 C 197.200 109.655,194.848 116.180,192.400 123.000 C 189.952 129.820,187.600 136.345,187.174 137.500 C 186.748 138.655,186.040 140.590,185.600 141.800 C 185.160 143.010,184.451 144.945,184.025 146.100 C 179.987 157.047,176.725 166.458,176.905 166.638 C 177.026 166.760,177.673 166.576,178.343 166.229 C 181.605 164.543,186.155 166.044,187.889 169.379 C 188.429 170.417,191.948 180.214,194.002 186.400 C 194.404 187.610,196.023 192.290,197.600 196.800 C 199.177 201.310,200.798 205.990,201.203 207.200 C 201.608 208.410,203.045 212.550,204.397 216.400 C 205.749 220.250,207.549 225.470,208.399 228.000 C 209.248 230.530,211.426 236.830,213.239 242.000 C 215.267 247.781,216.603 252.245,216.710 253.595 C 217.157 259.212,214.027 265.652,209.340 268.756 L 207.463 270.000 244.210 270.000 L 280.957 270.000 278.886 268.968 C 272.937 266.004,269.474 260.748,265.596 248.800 C 265.417 248.250,264.344 245.190,263.211 242.000 C 262.078 238.810,260.817 235.210,260.409 234.000 C 260.001 232.790,258.737 229.190,257.600 226.000 C 256.463 222.810,255.203 219.210,254.800 218.000 C 254.397 216.790,253.139 213.190,252.005 210.000 C 248.790 200.957,247.028 195.830,243.203 184.400 C 241.252 178.570,238.368 170.110,236.794 165.600 C 235.220 161.090,233.601 156.410,233.196 155.200 C 232.791 153.990,231.350 149.850,229.994 146.000 C 228.638 142.150,227.198 138.010,226.795 136.800 C 226.391 135.590,224.954 131.450,223.600 127.600 C 222.246 123.750,220.806 119.610,220.400 118.400 C 219.994 117.190,218.554 113.050,217.200 109.200 C 215.846 105.350,214.406 101.210,214.000 100.000 C 213.594 98.790,212.147 94.650,210.786 90.800 C 209.425 86.950,208.220 83.395,208.109 82.900 C 207.867 81.823,207.389 81.736,207.010 82.700 M164.434 194.874 C 161.886 208.091,158.886 210.943,145.700 212.680 C 143.943 212.912,143.327 213.600,144.876 213.600 C 155.715 213.600,161.888 218.757,163.998 229.573 C 164.934 234.373,165.061 234.645,165.386 232.541 C 167.434 219.283,170.670 215.806,182.700 213.936 C 186.859 213.290,186.833 213.095,182.500 212.434 C 173.620 211.079,169.368 208.336,167.467 202.737 C 166.600 200.183,165.601 195.778,165.594 194.475 C 165.581 192.137,164.917 192.365,164.434 194.874 M161.913 243.261 C 160.153 245.641,154.155 257.088,154.492 257.425 C 154.583 257.516,155.409 256.108,156.329 254.295 C 157.248 252.483,159.440 248.784,161.200 246.075 C 162.960 243.366,164.400 241.071,164.400 240.975 C 164.400 240.300,163.471 241.155,161.913 243.261 M152.895 245.516 C 152.840 246.851,152.930 247.225,153.203 246.800 C 153.666 246.078,153.703 244.782,153.280 244.116 C 153.107 243.844,152.939 244.458,152.895 245.516 M152.288 249.333 C 151.810 250.549,151.924 251.573,152.439 250.687 C 152.667 250.296,152.791 249.666,152.715 249.287 C 152.588 248.660,152.551 248.664,152.288 249.333 M176.800 250.367 C 176.800 250.789,176.446 251.959,176.014 252.967 C 175.273 254.696,175.540 255.607,176.346 254.100 C 176.815 253.225,177.378 249.600,177.045 249.600 C 176.910 249.600,176.800 249.945,176.800 250.367 M149.404 259.004 C 148.138 262.872,147.210 266.144,147.342 266.275 C 147.473 266.407,147.664 266.264,147.766 265.957 C 151.099 255.922,152.153 252.419,151.911 252.178 C 151.798 252.065,150.670 255.137,149.404 259.004 M159.698 258.728 C 158.494 260.504,157.633 262.296,157.021 264.300 C 156.528 265.913,157.381 265.244,158.126 263.433 C 158.525 262.462,159.455 260.665,160.194 259.438 C 161.841 256.702,161.450 256.142,159.698 258.728 M138.900 260.265 C 138.625 260.376,138.400 260.741,138.400 261.076 C 138.400 261.468,138.626 261.599,139.033 261.443 C 139.381 261.309,139.741 261.200,139.833 261.200 C 139.925 261.200,140.000 260.930,140.000 260.600 C 140.000 259.984,139.770 259.914,138.900 260.265 M151.492 263.842 C 151.331 264.002,151.200 264.409,151.200 264.747 C 151.200 265.197,151.318 265.242,151.645 264.915 C 151.890 264.670,152.021 264.263,151.937 264.010 C 151.852 263.757,151.652 263.681,151.492 263.842 M150.688 266.133 C 150.242 267.266,150.315 267.845,150.838 267.322 C 151.078 267.082,151.208 266.551,151.126 266.142 C 150.982 265.426,150.966 265.426,150.688 266.133 M165.228 266.570 C 164.714 267.118,164.444 267.747,164.608 268.014 C 164.808 268.336,165.199 268.123,165.836 267.343 C 167.375 265.462,166.871 264.822,165.228 266.570 M146.600 267.600 C 146.450 268.073,146.417 268.550,146.527 268.660 C 146.637 268.770,146.850 268.473,147.000 268.000 C 147.150 267.527,147.183 267.050,147.073 266.940 C 146.963 266.830,146.750 267.127,146.600 267.600 M134.100 267.798 C 133.825 268.111,133.600 268.553,133.600 268.782 C 133.600 269.011,132.870 270.567,131.979 272.240 C 131.087 273.914,130.428 275.579,130.515 275.941 C 130.605 276.316,131.599 274.702,132.819 272.200 C 134.000 269.780,135.033 267.665,135.116 267.500 C 135.376 266.983,134.624 267.203,134.100 267.798 M149.800 269.200 C 149.650 269.673,149.617 270.150,149.727 270.260 C 149.837 270.370,150.050 270.073,150.200 269.600 C 150.350 269.127,150.383 268.650,150.273 268.540 C 150.163 268.430,149.950 268.727,149.800 269.200 M163.688 271.600 C 163.706 272.260,163.874 272.800,164.061 272.800 C 164.247 272.800,164.400 272.260,164.400 271.600 C 164.400 270.940,164.232 270.400,164.027 270.400 C 163.821 270.400,163.669 270.940,163.688 271.600 M149.088 271.733 C 148.610 272.949,148.724 273.973,149.239 273.087 C 149.467 272.696,149.591 272.066,149.515 271.687 C 149.388 271.060,149.351 271.064,149.088 271.733 M164.400 275.240 C 164.400 276.286,163.066 278.406,162.471 278.306 C 161.802 278.194,160.837 280.171,161.324 280.657 C 161.810 281.143,163.546 280.065,164.146 278.904 C 164.976 277.299,165.401 274.800,164.845 274.800 C 164.600 274.800,164.400 274.998,164.400 275.240 M148.243 276.633 C 147.855 277.642,147.962 280.329,148.400 280.600 C 148.650 280.754,148.800 279.937,148.800 278.424 C 148.800 275.941,148.669 275.521,148.243 276.633 " stroke="none" fill="#1d1d1d" fill-rule="evenodd"></path><path id="path1" d="M0.000 200.000 L 0.000 400.000 200.000 400.000 L 400.000 400.000 400.000 200.000 L 400.000 0.000 200.000 0.000 L 0.000 0.000 0.000 200.000 M208.330 81.900 C 208.714 82.891,210.956 89.333,212.539 94.000 C 212.875 94.990,214.257 98.950,215.611 102.800 C 216.964 106.650,218.402 110.790,218.805 112.000 C 219.209 113.210,220.113 115.820,220.815 117.800 C 221.517 119.780,222.959 123.920,224.020 127.000 C 225.081 130.080,227.237 136.290,228.812 140.800 C 230.387 145.310,231.821 149.450,232.000 150.000 C 232.178 150.550,233.616 154.690,235.195 159.200 C 236.773 163.710,240.189 173.700,242.786 181.400 C 245.383 189.100,248.082 197.020,248.784 199.000 C 249.487 200.980,250.393 203.590,250.797 204.800 C 251.202 206.010,252.461 209.610,253.595 212.800 C 254.729 215.990,256.347 220.580,257.191 223.000 C 258.035 225.420,259.986 231.000,261.526 235.400 C 263.066 239.800,265.428 246.548,266.773 250.396 C 269.497 258.187,270.185 259.679,272.418 262.658 C 274.921 265.994,280.099 269.600,282.387 269.600 C 283.776 269.600,283.279 270.282,281.700 270.543 C 279.741 270.867,208.659 270.867,206.700 270.543 C 204.855 270.238,204.771 269.773,206.500 269.435 C 209.784 268.792,214.068 263.923,215.410 259.307 C 216.921 254.109,217.011 254.451,205.212 220.600 C 204.291 217.960,203.207 214.810,202.803 213.600 C 202.398 212.390,200.775 207.710,199.196 203.200 C 197.616 198.690,196.178 194.550,196.000 194.000 C 195.822 193.450,194.386 189.310,192.810 184.800 C 191.235 180.290,189.494 175.250,188.942 173.600 C 186.537 166.403,181.665 163.982,177.180 167.755 C 175.372 169.277,175.119 169.055,175.973 166.700 C 176.392 165.545,179.101 158.030,181.993 150.000 C 184.885 141.970,187.600 134.455,188.026 133.300 C 188.452 132.145,189.148 130.255,189.574 129.100 C 190.000 127.945,192.712 120.430,195.600 112.400 C 198.488 104.370,201.200 96.855,201.626 95.700 C 203.394 90.906,204.005 89.224,205.223 85.800 C 207.180 80.301,207.536 79.854,208.330 81.900 M165.607 190.300 C 165.625 192.995,167.350 201.118,168.414 203.525 C 170.728 208.756,173.983 210.433,185.700 212.431 C 187.405 212.721,188.800 213.068,188.800 213.200 C 188.800 213.332,187.405 213.679,185.700 213.969 C 171.655 216.364,168.658 218.696,166.637 228.800 C 166.263 230.670,165.851 233.325,165.721 234.700 C 165.335 238.782,164.631 237.490,163.596 230.800 C 162.341 222.687,160.507 219.392,155.970 217.098 C 153.130 215.662,151.218 215.149,144.300 213.969 C 140.881 213.386,140.426 213.020,142.700 212.683 C 158.208 210.381,161.564 207.812,163.443 196.802 C 164.630 189.845,165.585 186.976,165.607 190.300 M164.800 240.855 C 164.800 241.326,163.840 243.171,162.666 244.955 C 153.166 259.400,146.513 278.517,150.037 281.248 C 151.253 282.190,150.433 282.980,148.943 282.301 C 146.311 281.102,147.900 270.677,152.279 260.424 C 157.789 247.518,164.800 236.562,164.800 240.855 M153.635 243.265 C 154.795 245.433,152.483 254.661,146.850 270.342 C 145.524 274.033,145.356 274.316,144.813 273.773 C 144.302 273.262,145.910 267.451,149.734 256.000 C 151.784 249.860,152.898 244.400,152.100 244.400 C 151.243 244.400,140.800 258.425,140.800 259.576 C 140.800 259.866,141.523 260.035,145.500 260.678 C 148.022 261.085,146.758 261.605,143.398 261.543 C 138.945 261.459,137.956 262.609,132.419 274.300 C 131.461 276.323,130.827 277.200,130.323 277.200 C 129.179 277.200,129.453 275.716,131.211 272.405 C 133.425 268.232,133.423 266.288,131.200 263.952 C 128.681 261.303,128.794 261.169,134.200 260.385 C 135.960 260.130,137.760 259.852,138.200 259.767 C 138.685 259.674,139.944 258.159,141.400 255.916 C 148.889 244.376,152.327 240.822,153.635 243.265 M177.496 248.457 C 178.468 250.486,176.972 255.600,175.406 255.600 C 174.607 255.600,174.641 255.025,175.600 252.296 C 178.550 243.903,171.638 253.453,167.997 262.800 C 167.697 263.570,167.380 264.335,167.293 264.500 C 166.844 265.344,169.110 264.496,174.095 261.954 C 174.953 261.516,177.200 261.486,177.200 261.913 C 177.200 262.085,176.345 262.477,175.300 262.785 C 173.478 263.322,168.001 266.016,166.845 266.943 C 165.694 267.868,164.739 270.849,165.185 272.128 C 166.237 275.148,165.220 279.500,163.116 280.974 C 160.567 282.759,160.128 281.104,161.823 276.101 C 163.284 271.790,163.274 270.934,161.756 270.553 C 160.566 270.254,160.546 269.792,161.686 268.896 C 165.356 266.011,166.756 263.741,163.900 265.305 C 158.443 268.294,155.585 267.312,156.784 262.859 C 157.320 260.868,160.432 256.200,161.223 256.200 C 162.181 256.200,162.118 257.582,161.089 259.137 C 156.566 265.972,158.322 268.185,164.561 263.512 C 166.953 261.721,167.398 261.159,168.800 258.153 C 169.661 256.305,170.874 254.030,171.495 253.097 C 172.116 252.164,172.881 250.892,173.195 250.272 C 174.672 247.351,176.580 246.546,177.496 248.457 M164.000 254.200 C 164.000 254.923,163.785 255.200,163.224 255.200 C 162.303 255.200,161.842 254.589,162.152 253.781 C 162.550 252.745,164.000 253.074,164.000 254.200 M131.801 261.998 C 131.666 262.216,131.997 262.981,132.537 263.698 C 133.077 264.414,133.582 265.325,133.659 265.721 C 133.737 266.118,133.980 266.459,134.200 266.480 C 134.582 266.515,137.195 262.525,137.198 261.900 C 137.201 261.447,132.084 261.540,131.801 261.998 " stroke="none" fill="#ebebeb" fill-rule="evenodd"></path><path id="path2" d="" stroke="none" fill="#848484" fill-rule="evenodd"></path><path id="path3" d="M206.782 81.634 C 206.536 82.093,206.440 82.573,206.568 82.701 C 206.695 82.829,206.800 82.736,206.800 82.495 C 206.800 82.254,207.083 81.774,207.429 81.429 C 207.774 81.083,207.871 80.800,207.643 80.800 C 207.415 80.800,207.027 81.175,206.782 81.634 M180.000 166.000 C 179.176 166.264,179.141 166.326,179.800 166.354 C 180.240 166.373,180.870 166.213,181.200 166.000 C 181.901 165.547,181.414 165.547,180.000 166.000 M177.233 167.255 C 176.558 167.884,176.235 167.981,176.013 167.621 C 175.805 167.284,175.643 167.391,175.493 167.966 C 175.197 169.097,175.618 169.016,177.400 167.600 C 178.231 166.940,178.739 166.400,178.530 166.400 C 178.322 166.400,177.738 166.785,177.233 167.255 M186.655 168.600 C 187.267 169.480,187.820 170.275,187.884 170.367 C 187.948 170.458,188.000 170.362,188.000 170.152 C 188.000 169.942,187.447 169.147,186.771 168.385 L 185.542 167.000 186.655 168.600 M164.800 189.776 C 164.800 190.093,164.980 190.464,165.200 190.600 C 165.420 190.736,165.600 190.477,165.600 190.024 C 165.600 189.571,165.420 189.200,165.200 189.200 C 164.980 189.200,164.800 189.459,164.800 189.776 M164.178 192.178 C 164.027 192.981,163.994 193.727,164.104 193.837 C 164.214 193.947,164.427 193.381,164.578 192.578 C 164.728 191.775,164.762 191.028,164.652 190.918 C 164.542 190.808,164.328 191.375,164.178 192.178 M165.687 193.200 C 165.683 193.750,165.824 194.650,166.000 195.200 C 166.431 196.544,166.431 195.092,166.000 193.400 C 165.726 192.322,165.694 192.302,165.687 193.200 M163.649 195.800 C 163.616 196.240,163.496 197.050,163.383 197.600 L 163.177 198.600 163.606 197.619 C 163.842 197.079,163.961 196.269,163.872 195.819 C 163.713 195.021,163.707 195.021,163.649 195.800 M166.468 197.800 C 166.462 198.240,166.611 198.960,166.800 199.400 C 167.238 200.419,167.238 199.368,166.800 198.000 C 166.543 197.196,166.477 197.157,166.468 197.800 M168.800 204.985 C 168.800 206.141,173.239 210.095,173.850 209.483 C 173.947 209.387,173.468 209.077,172.785 208.794 C 172.103 208.511,170.928 207.471,170.173 206.483 C 169.418 205.494,168.800 204.820,168.800 204.985 M149.000 211.600 C 147.911 211.877,147.893 211.907,148.800 211.925 C 149.350 211.935,150.160 211.789,150.600 211.600 C 151.586 211.176,150.666 211.176,149.000 211.600 M179.400 211.581 C 180.168 211.929,182.310 212.156,181.967 211.853 C 181.875 211.772,181.080 211.596,180.200 211.462 C 179.085 211.293,178.842 211.329,179.400 211.581 M144.400 212.400 C 143.596 212.657,143.557 212.723,144.200 212.732 C 144.640 212.738,145.360 212.589,145.800 212.400 C 146.819 211.962,145.768 211.962,144.400 212.400 M184.200 212.400 C 184.640 212.589,185.360 212.738,185.800 212.732 C 186.443 212.723,186.404 212.657,185.600 212.400 C 184.232 211.962,183.181 211.962,184.200 212.400 M141.200 213.200 C 141.200 213.420,141.470 213.600,141.800 213.600 C 142.130 213.600,142.400 213.420,142.400 213.200 C 142.400 212.980,142.130 212.800,141.800 212.800 C 141.470 212.800,141.200 212.980,141.200 213.200 M187.600 213.200 C 187.600 213.420,187.870 213.600,188.200 213.600 C 188.530 213.600,188.800 213.420,188.800 213.200 C 188.800 212.980,188.530 212.800,188.200 212.800 C 187.870 212.800,187.600 212.980,187.600 213.200 M144.400 214.000 C 144.950 214.176,145.760 214.320,146.200 214.320 C 146.833 214.320,146.792 214.254,146.000 214.000 C 145.450 213.824,144.640 213.680,144.200 213.680 C 143.567 213.680,143.608 213.746,144.400 214.000 M184.200 214.000 C 183.181 214.438,184.232 214.438,185.600 214.000 C 186.404 213.743,186.443 213.677,185.800 213.668 C 185.360 213.662,184.640 213.811,184.200 214.000 M148.033 214.547 C 148.125 214.628,148.920 214.804,149.800 214.938 C 150.915 215.107,151.158 215.071,150.600 214.819 C 149.832 214.471,147.690 214.244,148.033 214.547 M179.400 214.819 C 178.842 215.071,179.085 215.107,180.200 214.938 C 181.080 214.804,181.875 214.628,181.967 214.547 C 182.310 214.244,180.168 214.471,179.400 214.819 M171.993 217.753 C 170.676 218.655,168.800 220.830,168.800 221.455 C 168.800 221.613,169.311 221.058,169.935 220.221 C 170.559 219.384,171.774 218.273,172.635 217.752 C 173.496 217.231,174.017 216.803,173.793 216.802 C 173.569 216.801,172.759 217.229,171.993 217.753 M166.600 227.200 C 166.448 227.891,166.407 228.541,166.509 228.642 C 166.611 228.744,166.809 228.253,166.950 227.550 C 167.283 225.883,166.960 225.560,166.600 227.200 M164.030 233.554 C 163.980 234.472,164.902 237.200,165.263 237.200 C 165.448 237.200,165.600 236.720,165.600 236.133 C 165.600 235.547,165.469 235.197,165.310 235.357 C 165.150 235.516,164.804 235.051,164.540 234.323 C 164.277 233.596,164.047 233.249,164.030 233.554 M162.962 240.900 C 162.206 241.792,162.207 241.794,163.000 241.152 C 163.440 240.796,164.070 240.405,164.400 240.284 C 164.909 240.097,164.904 240.058,164.362 240.032 C 164.011 240.014,163.381 240.405,162.962 240.900 M161.528 242.700 C 160.792 243.565,158.919 246.753,159.472 246.200 C 159.972 245.700,162.418 242.000,162.248 242.000 C 162.180 242.000,161.856 242.315,161.528 242.700 M151.462 242.700 C 151.360 242.865,151.782 243.000,152.400 243.000 C 153.018 243.000,153.440 242.865,153.338 242.700 C 153.236 242.535,152.814 242.400,152.400 242.400 C 151.986 242.400,151.564 242.535,151.462 242.700 M147.275 247.497 C 145.507 249.861,144.151 251.884,144.260 251.994 C 144.370 252.104,144.645 251.862,144.872 251.457 C 145.099 251.052,146.424 249.209,147.818 247.361 C 150.636 243.625,150.927 243.200,150.668 243.200 C 150.569 243.200,149.042 245.134,147.275 247.497 M153.714 245.400 C 153.717 246.500,153.795 246.903,153.887 246.295 C 153.979 245.686,153.977 244.786,153.882 244.295 C 153.787 243.803,153.711 244.300,153.714 245.400 M150.768 245.100 C 148.818 247.285,148.242 248.193,150.000 246.311 C 152.240 243.913,152.568 243.912,152.280 246.300 C 152.131 247.536,152.172 247.920,152.397 247.400 C 153.568 244.698,152.488 243.173,150.768 245.100 M160.708 247.300 C 159.833 248.649,159.048 250.256,159.487 249.800 C 160.048 249.217,161.698 246.400,161.479 246.400 C 161.376 246.400,161.029 246.805,160.708 247.300 M174.737 248.172 C 174.203 248.706,173.510 249.651,173.197 250.272 C 172.885 250.892,172.308 251.876,171.917 252.458 C 171.292 253.387,171.280 253.545,171.818 253.751 C 172.188 253.894,172.529 253.713,172.680 253.293 C 172.818 252.912,173.272 252.106,173.690 251.503 C 174.108 250.899,174.321 250.196,174.163 249.941 C 173.996 249.670,174.050 249.584,174.293 249.734 C 174.522 249.875,174.932 249.723,175.204 249.396 C 176.040 248.387,176.518 248.709,176.251 250.100 C 176.073 251.024,176.115 251.227,176.394 250.800 C 176.611 250.470,176.791 249.795,176.794 249.300 C 176.797 248.805,177.002 248.400,177.249 248.400 C 177.559 248.400,177.544 248.215,177.200 247.800 C 176.498 246.954,175.858 247.051,174.737 248.172 M175.398 248.802 C 174.998 249.244,174.585 249.518,174.479 249.412 C 174.210 249.143,175.208 248.000,175.711 248.000 C 175.938 248.000,175.797 248.361,175.398 248.802 M153.000 249.600 C 152.848 250.291,152.807 250.941,152.909 251.042 C 153.011 251.144,153.209 250.653,153.350 249.950 C 153.683 248.283,153.360 247.960,153.000 249.600 M157.400 249.600 C 157.059 250.260,156.869 250.800,156.979 250.800 C 157.089 250.800,157.459 250.260,157.800 249.600 C 158.141 248.940,158.331 248.400,158.221 248.400 C 158.111 248.400,157.741 248.940,157.400 249.600 M144.054 253.910 C 142.214 256.710,140.971 258.730,141.292 258.400 C 142.269 257.395,148.007 248.799,147.693 248.810 C 147.532 248.816,145.895 251.111,144.054 253.910 M158.214 251.435 C 157.841 252.004,157.605 252.538,157.689 252.622 C 157.773 252.707,158.158 252.241,158.544 251.588 C 159.406 250.128,159.148 250.009,158.214 251.435 M216.128 254.400 C 216.128 255.830,216.201 256.415,216.289 255.700 C 216.378 254.985,216.378 253.815,216.289 253.100 C 216.201 252.385,216.128 252.970,216.128 254.400 M143.045 253.388 C 142.680 253.944,142.522 254.400,142.695 254.400 C 143.084 254.400,144.119 252.786,143.882 252.549 C 143.786 252.453,143.410 252.831,143.045 253.388 M156.581 254.437 C 156.229 255.118,156.012 255.745,156.099 255.832 C 156.186 255.919,156.556 255.362,156.922 254.595 C 157.744 252.870,157.459 252.738,156.581 254.437 M162.134 253.827 C 162.002 254.172,162.088 254.648,162.325 254.885 C 162.632 255.192,162.694 255.080,162.540 254.490 C 162.374 253.858,162.543 253.624,163.262 253.487 L 164.200 253.309 163.287 253.254 C 162.786 253.225,162.267 253.482,162.134 253.827 M170.308 255.000 C 169.800 255.982,169.782 256.287,170.208 256.682 C 170.617 257.061,170.778 257.035,170.959 256.561 C 171.091 256.219,171.020 256.064,170.795 256.203 C 170.578 256.337,170.400 256.177,170.400 255.847 C 170.400 255.517,170.580 255.136,170.800 255.000 C 171.020 254.864,171.200 254.954,171.200 255.200 C 171.200 255.446,171.380 255.536,171.600 255.400 C 171.820 255.264,172.000 254.973,172.000 254.753 C 172.000 254.533,171.835 254.455,171.634 254.579 C 171.433 254.703,171.192 254.579,171.099 254.302 C 171.003 254.019,170.658 254.324,170.308 255.000 M174.846 254.700 C 174.791 255.779,175.682 255.891,176.432 254.900 C 176.882 254.304,176.878 254.275,176.401 254.700 C 175.638 255.381,175.292 255.328,175.076 254.500 C 174.938 253.973,174.881 254.023,174.846 254.700 M141.445 255.788 C 141.080 256.344,140.922 256.800,141.095 256.800 C 141.484 256.800,142.519 255.186,142.282 254.949 C 142.186 254.853,141.810 255.231,141.445 255.788 M160.360 256.687 C 159.849 257.338,159.861 257.352,160.510 256.843 C 161.509 256.059,161.846 256.606,161.294 258.115 C 160.862 259.297,160.873 259.336,161.427 258.603 C 162.576 257.085,161.527 255.201,160.360 256.687 M169.036 257.451 C 168.709 258.302,168.740 258.484,169.166 258.221 C 169.367 258.097,169.604 258.212,169.692 258.477 C 169.804 258.811,169.922 258.781,170.076 258.378 C 170.199 258.058,170.068 257.580,169.786 257.316 C 169.383 256.939,169.221 256.969,169.036 257.451 M139.845 258.188 C 139.480 258.744,139.322 259.200,139.495 259.200 C 139.884 259.200,140.919 257.586,140.682 257.349 C 140.586 257.253,140.210 257.631,139.845 258.188 M158.893 258.700 C 157.857 260.196,157.521 260.800,157.723 260.800 C 157.817 260.800,158.370 260.080,158.953 259.200 C 160.136 257.412,160.084 256.979,158.893 258.700 M215.429 259.029 C 215.281 259.615,215.238 260.172,215.332 260.266 C 215.427 260.360,215.624 259.958,215.771 259.371 C 215.919 258.785,215.962 258.228,215.868 258.134 C 215.773 258.040,215.576 258.442,215.429 259.029 M168.239 259.094 C 167.859 259.475,167.962 260.070,168.366 259.821 C 168.567 259.697,168.804 259.812,168.892 260.077 C 168.997 260.391,169.140 260.333,169.301 259.913 C 169.547 259.272,168.708 258.625,168.239 259.094 M270.416 260.309 C 270.934 261.250,271.699 262.328,272.117 262.705 C 272.534 263.083,272.211 262.404,271.400 261.196 C 269.534 258.417,269.217 258.132,270.416 260.309 M140.432 259.700 C 140.414 260.085,140.614 260.400,140.876 260.400 C 141.139 260.400,141.016 260.646,140.605 260.947 C 139.940 261.433,140.108 261.496,142.129 261.514 C 143.737 261.528,144.400 261.382,144.400 261.014 C 144.400 260.468,143.202 260.015,141.733 260.005 C 141.257 260.002,140.776 259.775,140.665 259.500 C 140.544 259.201,140.450 259.282,140.432 259.700 M133.800 260.400 C 132.684 260.684,132.670 260.709,133.600 260.759 C 134.399 260.802,134.479 260.890,134.000 261.200 C 133.566 261.480,133.926 261.589,135.300 261.594 C 137.513 261.601,137.512 261.598,136.183 263.865 C 134.894 266.065,135.149 266.121,136.584 263.952 C 137.267 262.920,137.608 261.953,137.496 261.366 C 137.397 260.850,137.515 260.346,137.758 260.246 C 138.498 259.940,135.083 260.073,133.800 260.400 M166.436 261.925 C 162.772 265.483,158.953 266.844,158.367 264.800 C 158.169 264.112,158.067 264.026,158.040 264.526 C 158.018 264.926,158.194 265.614,158.430 266.057 C 158.825 266.793,158.788 266.822,157.996 266.398 C 157.521 266.143,157.057 266.009,156.966 266.100 C 156.876 266.191,157.249 266.505,157.796 266.798 C 158.947 267.414,160.939 266.927,163.900 265.305 C 166.126 264.086,166.114 264.845,163.873 266.992 C 162.465 268.341,162.243 268.738,162.673 269.139 C 163.381 269.801,163.339 270.400,162.584 270.400 C 162.078 270.400,162.060 270.499,162.484 270.957 C 162.923 271.431,163.038 271.413,163.255 270.843 C 163.704 269.663,164.799 268.963,164.806 269.851 C 164.811 270.481,164.874 270.505,165.200 270.000 C 165.695 269.234,165.710 268.685,165.228 268.983 C 165.023 269.109,164.753 269.047,164.627 268.844 C 164.502 268.641,163.994 268.573,163.500 268.692 L 162.600 268.909 163.471 268.066 C 165.870 265.743,167.180 263.222,165.700 263.776 C 165.304 263.925,165.570 263.465,166.312 262.719 C 167.314 261.711,167.702 261.526,167.956 261.934 C 168.221 262.358,168.341 262.331,168.544 261.801 C 168.891 260.897,168.866 260.712,168.434 260.979 C 168.233 261.103,168.008 261.069,167.934 260.902 C 167.860 260.736,167.186 261.196,166.436 261.925 M131.200 262.480 C 131.200 263.164,131.093 263.253,130.720 262.880 C 130.456 262.616,130.114 262.400,129.960 262.400 C 129.507 262.400,132.552 265.353,133.100 265.445 C 133.825 265.567,133.725 265.239,132.578 263.735 C 132.016 262.998,131.666 262.216,131.801 261.998 C 131.937 261.779,131.857 261.600,131.624 261.600 C 131.391 261.600,131.200 261.996,131.200 262.480 M138.401 262.598 C 137.886 263.148,137.539 263.664,137.632 263.746 C 137.724 263.828,138.219 263.378,138.730 262.747 C 139.876 261.335,139.674 261.244,138.401 262.598 M174.138 262.217 C 173.835 263.008,174.118 263.283,174.917 262.976 C 175.265 262.843,175.452 262.479,175.332 262.167 C 175.045 261.419,174.434 261.445,174.138 262.217 M172.138 263.017 C 172.008 263.357,172.001 263.735,172.124 263.857 C 172.474 264.208,173.200 263.613,173.200 262.976 C 173.200 262.209,172.437 262.238,172.138 263.017 M213.295 263.823 C 212.803 264.574,212.400 265.323,212.400 265.487 C 212.400 265.651,212.866 265.100,213.436 264.262 C 214.005 263.424,214.408 262.675,214.331 262.598 C 214.254 262.520,213.788 263.072,213.295 263.823 M170.538 263.817 C 170.408 264.157,170.401 264.535,170.524 264.657 C 170.874 265.008,171.600 264.413,171.600 263.776 C 171.600 263.009,170.837 263.038,170.538 263.817 M274.000 265.000 C 274.746 265.770,275.447 266.400,275.557 266.400 C 275.667 266.400,275.146 265.770,274.400 265.000 C 273.654 264.230,272.953 263.600,272.843 263.600 C 272.733 263.600,273.254 264.230,274.000 265.000 M169.150 264.200 C 169.123 264.310,169.078 264.610,169.050 264.867 C 168.986 265.465,168.000 265.809,168.000 265.233 C 168.000 264.995,167.685 264.806,167.300 264.813 C 166.636 264.825,166.636 264.853,167.294 265.352 C 167.675 265.642,167.855 266.019,167.694 266.190 C 167.532 266.362,167.955 266.220,168.633 265.875 C 169.312 265.530,169.867 264.968,169.867 264.624 C 169.867 264.063,169.272 263.711,169.150 264.200 M136.600 265.600 C 136.259 266.260,136.069 266.800,136.179 266.800 C 136.289 266.800,136.659 266.260,137.000 265.600 C 137.341 264.940,137.531 264.400,137.421 264.400 C 137.311 264.400,136.941 264.940,136.600 265.600 M134.623 266.362 C 134.500 266.562,134.039 266.631,133.600 266.516 C 132.897 266.332,132.806 266.494,132.846 267.853 C 132.872 268.704,132.980 269.061,133.086 268.647 C 133.192 268.232,133.756 267.473,134.340 266.959 C 134.923 266.446,135.276 266.020,135.124 266.013 C 134.972 266.006,134.746 266.163,134.623 266.362 M276.382 266.931 C 276.931 267.638,280.449 269.619,281.087 269.581 C 281.259 269.571,280.500 269.100,279.400 268.535 C 278.300 267.970,277.043 267.213,276.607 266.854 C 275.856 266.235,275.844 266.239,276.382 266.931 M208.800 268.400 C 208.250 268.830,207.530 269.200,207.200 269.223 C 206.815 269.249,206.772 269.333,207.081 269.459 C 207.346 269.566,208.243 269.192,209.074 268.627 C 209.906 268.062,210.409 267.604,210.193 267.609 C 209.977 267.614,209.350 267.970,208.800 268.400 M134.214 269.835 C 133.841 270.404,133.605 270.938,133.689 271.022 C 133.773 271.107,134.158 270.641,134.544 269.988 C 135.406 268.528,135.148 268.409,134.214 269.835 M205.200 270.000 C 205.200 270.220,205.470 270.400,205.800 270.400 C 206.130 270.400,206.400 270.220,206.400 270.000 C 206.400 269.780,206.130 269.600,205.800 269.600 C 205.470 269.600,205.200 269.780,205.200 270.000 M282.000 270.000 C 282.000 270.220,282.270 270.400,282.600 270.400 C 282.930 270.400,283.200 270.220,283.200 270.000 C 283.200 269.780,282.930 269.600,282.600 269.600 C 282.270 269.600,282.000 269.780,282.000 270.000 M131.800 271.200 C 131.459 271.860,131.269 272.400,131.379 272.400 C 131.489 272.400,131.859 271.860,132.200 271.200 C 132.541 270.540,132.731 270.000,132.621 270.000 C 132.511 270.000,132.141 270.540,131.800 271.200 M225.470 270.700 C 235.628 270.759,252.368 270.759,262.670 270.700 C 272.971 270.641,264.660 270.592,244.200 270.592 C 223.740 270.592,215.311 270.640,225.470 270.700 M149.800 272.000 C 149.648 272.691,149.607 273.341,149.709 273.442 C 149.811 273.544,150.009 273.053,150.150 272.350 C 150.483 270.683,150.160 270.360,149.800 272.000 M148.222 272.622 C 148.072 273.425,148.028 274.162,148.126 274.260 C 148.224 274.357,148.427 273.781,148.578 272.978 C 148.728 272.175,148.772 271.438,148.674 271.340 C 148.576 271.243,148.373 271.819,148.222 272.622 M164.856 272.000 C 164.856 272.330,165.011 272.960,165.200 273.400 C 165.417 273.904,165.544 273.978,165.544 273.600 C 165.544 273.270,165.389 272.640,165.200 272.200 C 164.983 271.696,164.856 271.622,164.856 272.000 M162.639 273.443 C 162.304 274.316,162.340 274.485,162.800 274.200 C 163.020 274.064,163.200 274.143,163.200 274.376 C 163.200 274.609,163.380 274.800,163.600 274.800 C 164.178 274.800,164.091 274.034,163.439 273.382 C 162.957 272.900,162.844 272.909,162.639 273.443 M149.050 275.650 C 148.480 278.498,148.750 280.613,149.800 281.525 C 150.350 282.003,150.800 282.222,150.800 282.011 C 150.800 281.801,150.415 281.422,149.944 281.170 C 149.146 280.743,149.105 280.499,149.332 277.556 C 149.586 274.262,149.476 273.520,149.050 275.650 M161.856 275.799 C 161.503 276.717,161.534 276.888,162.000 276.600 C 162.220 276.464,162.400 276.633,162.400 276.976 C 162.400 277.795,162.785 277.766,163.443 276.900 C 164.167 275.947,164.129 275.651,163.300 275.779 C 162.915 275.838,162.490 275.717,162.356 275.510 C 162.221 275.303,161.996 275.433,161.856 275.799 M147.728 278.400 C 147.728 279.830,147.801 280.415,147.889 279.700 C 147.978 278.985,147.978 277.815,147.889 277.100 C 147.801 276.385,147.728 276.970,147.728 278.400 M163.503 280.063 C 162.704 280.960,162.172 281.234,161.545 281.070 C 160.884 280.897,160.794 280.954,161.157 281.317 C 161.745 281.905,163.421 281.045,164.306 279.700 C 165.124 278.456,164.806 278.600,163.503 280.063 " stroke="none" fill="#8c8c8c" fill-rule="evenodd"></path><path id="path4" d="M206.849 82.252 C 206.586 82.830,206.450 83.384,206.549 83.482 C 206.647 83.580,206.846 83.287,206.990 82.830 C 207.135 82.374,207.422 82.000,207.627 82.000 C 207.832 82.000,208.000 81.820,208.000 81.600 C 208.000 80.828,207.323 81.211,206.849 82.252 M176.207 166.777 C 175.801 168.056,176.212 168.212,177.274 167.181 C 177.783 166.687,177.955 166.422,177.655 166.592 C 177.340 166.772,176.979 166.690,176.799 166.398 C 176.577 166.040,176.407 166.149,176.207 166.777 M185.276 166.819 C 185.648 167.036,186.411 167.795,186.972 168.506 C 187.532 169.218,187.993 169.671,187.996 169.514 C 188.003 169.008,185.533 166.400,185.059 166.412 C 184.806 166.419,184.904 166.602,185.276 166.819 M164.619 192.241 C 164.470 193.033,164.450 193.783,164.574 193.908 C 164.698 194.032,164.803 193.698,164.806 193.167 C 164.811 192.396,164.891 192.321,165.200 192.800 C 165.494 193.255,165.589 193.086,165.594 192.100 C 165.602 190.352,164.955 190.446,164.619 192.241 M165.680 195.400 C 165.680 195.840,165.824 196.650,166.000 197.200 C 166.254 197.992,166.320 198.033,166.320 197.400 C 166.320 196.960,166.176 196.150,166.000 195.600 C 165.746 194.808,165.680 194.767,165.680 195.400 M163.400 198.400 C 163.248 199.091,163.207 199.741,163.309 199.842 C 163.411 199.944,163.609 199.453,163.750 198.750 C 164.083 197.083,163.760 196.760,163.400 198.400 M172.000 208.996 C 172.000 209.270,174.449 210.484,174.632 210.301 C 174.719 210.214,174.162 209.844,173.395 209.478 C 172.628 209.112,172.000 208.895,172.000 208.996 M150.600 211.600 C 150.096 211.817,150.022 211.944,150.400 211.944 C 150.730 211.944,151.360 211.789,151.800 211.600 C 152.304 211.383,152.378 211.256,152.000 211.256 C 151.670 211.256,151.040 211.411,150.600 211.600 M146.000 212.400 C 145.208 212.654,145.167 212.720,145.800 212.720 C 146.240 212.720,147.050 212.576,147.600 212.400 C 148.392 212.146,148.433 212.080,147.800 212.080 C 147.360 212.080,146.550 212.224,146.000 212.400 M182.200 212.400 C 183.892 212.831,185.344 212.831,184.000 212.400 C 183.450 212.224,182.550 212.083,182.000 212.087 C 181.102 212.094,181.122 212.126,182.200 212.400 M142.800 213.200 C 142.800 213.420,143.070 213.600,143.400 213.600 C 143.730 213.600,144.000 213.420,144.000 213.200 C 144.000 212.980,143.730 212.800,143.400 212.800 C 143.070 212.800,142.800 212.980,142.800 213.200 M186.000 213.200 C 186.000 213.420,186.270 213.600,186.600 213.600 C 186.930 213.600,187.200 213.420,187.200 213.200 C 187.200 212.980,186.930 212.800,186.600 212.800 C 186.270 212.800,186.000 212.980,186.000 213.200 M146.200 214.000 C 146.640 214.189,147.360 214.338,147.800 214.332 C 148.443 214.323,148.404 214.257,147.600 214.000 C 146.232 213.562,145.181 213.562,146.200 214.000 M182.200 214.000 C 181.122 214.274,181.102 214.306,182.000 214.313 C 182.550 214.317,183.450 214.176,184.000 214.000 C 185.344 213.569,183.892 213.569,182.200 214.000 M178.200 214.800 C 177.696 215.017,177.622 215.144,178.000 215.144 C 178.330 215.144,178.960 214.989,179.400 214.800 C 179.904 214.583,179.978 214.456,179.600 214.456 C 179.270 214.456,178.640 214.611,178.200 214.800 M166.629 225.829 C 166.481 226.415,166.438 226.972,166.532 227.066 C 166.627 227.160,166.824 226.758,166.971 226.171 C 167.119 225.585,167.162 225.028,167.068 224.934 C 166.973 224.840,166.776 225.242,166.629 225.829 M165.800 229.600 C 165.648 230.291,165.607 230.941,165.709 231.042 C 165.811 231.144,166.009 230.653,166.150 229.950 C 166.483 228.283,166.160 227.960,165.800 229.600 M164.043 231.323 C 163.959 232.740,164.894 235.694,165.250 235.133 C 165.436 234.840,165.578 234.150,165.566 233.600 C 165.546 232.694,165.513 232.676,165.223 233.400 C 164.959 234.059,164.830 233.882,164.494 232.400 C 164.269 231.410,164.066 230.925,164.043 231.323 M164.159 240.691 C 164.316 240.969,163.591 242.445,162.489 244.091 C 160.275 247.399,159.679 248.401,160.287 247.800 C 161.883 246.220,164.832 241.076,164.381 240.660 C 164.003 240.311,163.949 240.318,164.159 240.691 M150.442 244.300 C 149.619 245.125,148.517 246.430,147.992 247.200 C 147.468 247.970,146.924 248.690,146.784 248.800 C 146.643 248.910,145.030 251.250,143.197 254.000 C 140.013 258.779,138.681 260.400,137.939 260.400 C 137.752 260.400,137.600 260.860,137.600 261.422 C 137.600 262.429,135.093 266.527,133.842 267.565 C 133.489 267.858,133.200 268.355,133.200 268.669 C 133.200 268.983,132.921 269.816,132.581 270.520 C 132.012 271.695,132.013 271.735,132.598 271.000 C 132.948 270.560,133.347 269.752,133.485 269.204 C 133.786 268.005,134.653 267.062,135.165 267.378 C 135.369 267.504,136.045 266.591,136.668 265.349 C 137.290 264.108,138.473 262.547,139.296 261.882 C 140.502 260.907,140.701 260.562,140.322 260.106 C 140.008 259.728,139.988 259.449,140.261 259.270 C 140.487 259.121,142.150 256.785,143.958 254.079 C 145.765 251.372,147.549 248.777,147.922 248.311 C 151.065 244.388,153.508 242.576,153.014 244.533 C 152.812 245.335,152.832 245.330,153.273 244.470 C 153.658 243.717,153.640 243.470,153.175 243.176 C 152.273 242.605,152.033 242.704,150.442 244.300 M158.600 248.000 C 158.043 249.100,157.677 250.000,157.787 250.000 C 157.897 250.000,158.443 249.100,159.000 248.000 C 159.557 246.900,159.923 246.000,159.813 246.000 C 159.703 246.000,159.157 246.900,158.600 248.000 M152.916 247.006 C 152.650 247.295,152.334 248.042,152.214 248.666 C 152.094 249.290,152.102 249.574,152.232 249.298 C 152.362 249.021,152.618 248.888,152.802 249.001 C 153.118 249.196,153.829 246.888,153.538 246.612 C 153.462 246.540,153.182 246.717,152.916 247.006 M176.971 250.585 C 176.971 251.787,177.110 252.552,177.280 252.285 C 177.685 251.647,177.690 248.400,177.286 248.400 C 177.113 248.400,176.971 249.383,176.971 250.585 M158.186 250.900 L 157.552 252.200 158.367 251.200 C 159.152 250.237,159.408 249.600,159.010 249.600 C 158.906 249.600,158.535 250.185,158.186 250.900 M151.433 251.409 C 151.284 252.006,151.260 252.593,151.381 252.714 C 151.501 252.835,151.603 252.678,151.606 252.367 C 151.611 251.900,151.672 251.895,151.953 252.338 C 152.204 252.733,152.367 252.588,152.567 251.791 C 152.716 251.194,152.740 250.607,152.619 250.486 C 152.499 250.365,152.397 250.522,152.394 250.833 C 152.389 251.300,152.328 251.305,152.047 250.862 C 151.796 250.467,151.633 250.612,151.433 251.409 M216.198 254.874 C 216.197 257.069,216.314 258.445,216.458 257.932 C 216.824 256.631,216.850 251.897,216.494 251.342 C 216.332 251.090,216.199 252.679,216.198 254.874 M156.278 252.541 C 156.117 252.960,156.168 253.143,156.405 252.997 C 156.907 252.687,156.904 253.219,156.400 254.000 C 156.055 254.533,156.010 254.533,155.988 254.000 C 155.975 253.670,155.600 254.092,155.153 254.938 C 154.707 255.784,154.445 256.579,154.571 256.704 C 154.697 256.830,154.803 256.678,154.806 256.367 C 154.811 255.939,154.889 255.921,155.126 256.294 C 155.332 256.618,155.814 256.025,156.530 254.564 C 157.130 253.341,157.451 252.445,157.245 252.572 C 157.038 252.700,156.796 252.588,156.708 252.323 C 156.608 252.024,156.445 252.107,156.278 252.541 M150.600 254.000 C 150.450 254.473,150.417 254.950,150.527 255.060 C 150.637 255.170,150.850 254.873,151.000 254.400 C 151.150 253.927,151.183 253.450,151.073 253.340 C 150.963 253.230,150.750 253.527,150.600 254.000 M151.400 254.400 C 151.250 254.873,151.217 255.350,151.327 255.460 C 151.437 255.570,151.650 255.273,151.800 254.800 C 151.950 254.327,151.983 253.850,151.873 253.740 C 151.763 253.630,151.550 253.927,151.400 254.400 M163.381 253.970 C 163.507 254.173,163.334 254.425,162.997 254.529 C 162.523 254.676,162.537 254.705,163.059 254.659 C 163.812 254.593,164.329 253.600,163.610 253.600 C 163.358 253.600,163.256 253.766,163.381 253.970 M159.045 259.065 C 158.250 260.336,157.602 261.561,157.605 261.787 C 157.607 262.014,158.072 261.390,158.636 260.400 C 159.201 259.410,159.948 258.284,160.296 257.898 C 160.644 257.511,160.830 257.096,160.709 256.976 C 160.588 256.855,159.839 257.795,159.045 259.065 M153.800 257.533 C 153.419 257.914,153.603 258.267,154.183 258.267 C 154.503 258.267,154.846 258.057,154.945 257.800 C 155.119 257.346,154.201 257.132,153.800 257.533 M268.800 257.753 C 268.800 258.182,269.990 260.400,270.221 260.400 C 270.331 260.400,270.123 259.815,269.759 259.100 C 269.017 257.640,268.800 257.336,268.800 257.753 M153.030 259.467 C 152.917 259.760,152.932 260.277,153.062 260.616 C 153.205 260.991,153.102 261.187,152.799 261.116 C 152.525 261.052,152.222 261.211,152.127 261.468 C 152.028 261.736,152.263 261.891,152.677 261.830 C 153.084 261.770,153.400 261.391,153.400 260.962 C 153.400 260.543,153.625 260.056,153.900 259.880 C 154.175 259.704,154.400 259.419,154.400 259.247 C 154.400 258.716,153.247 258.901,153.030 259.467 M159.800 260.000 C 159.459 260.660,159.269 261.200,159.379 261.200 C 159.489 261.200,159.859 260.660,160.200 260.000 C 160.541 259.340,160.731 258.800,160.621 258.800 C 160.511 258.800,160.141 259.340,159.800 260.000 M140.000 260.600 C 140.000 260.930,139.925 261.200,139.833 261.200 C 139.741 261.200,139.381 261.309,139.033 261.443 C 138.626 261.599,138.400 261.468,138.400 261.076 C 138.400 260.523,138.908 260.115,139.700 260.032 C 139.865 260.014,140.000 260.270,140.000 260.600 M130.889 261.293 C 129.956 261.743,129.877 262.426,130.725 262.708 C 130.986 262.795,131.200 262.582,131.200 262.233 C 131.200 261.796,131.572 261.600,132.400 261.600 C 133.060 261.600,133.600 261.420,133.600 261.200 C 133.600 260.680,132.051 260.733,130.889 261.293 M144.800 261.200 C 144.800 261.420,145.070 261.600,145.400 261.600 C 145.730 261.600,146.000 261.420,146.000 261.200 C 146.000 260.980,145.730 260.800,145.400 260.800 C 145.070 260.800,144.800 260.980,144.800 261.200 M166.691 262.366 C 166.289 262.773,166.088 263.365,166.228 263.728 C 166.368 264.092,166.078 264.942,165.562 265.686 C 164.657 266.989,164.656 266.993,165.527 266.236 C 166.666 265.244,167.157 265.733,166.164 266.870 L 165.400 267.745 166.487 266.973 C 167.610 266.175,167.905 265.600,167.192 265.600 C 166.739 265.600,167.089 263.634,167.652 263.020 C 168.704 261.873,167.791 261.252,166.691 262.366 M152.400 262.800 C 152.400 263.020,152.197 263.155,151.950 263.100 C 151.703 263.045,151.422 263.211,151.327 263.468 C 151.228 263.736,151.463 263.891,151.877 263.830 C 152.514 263.737,153.217 262.400,152.629 262.400 C 152.503 262.400,152.400 262.580,152.400 262.800 M272.400 263.450 C 272.400 263.661,273.255 264.636,274.300 265.617 L 276.200 267.400 274.400 265.407 C 273.410 264.312,272.555 263.337,272.500 263.241 C 272.445 263.145,272.400 263.239,272.400 263.450 M150.617 265.499 C 150.276 266.389,150.374 266.659,150.800 266.000 C 151.145 265.467,151.189 265.467,151.200 266.000 C 151.212 266.603,151.977 265.801,151.994 265.167 C 152.007 264.675,150.824 264.961,150.617 265.499 M157.305 265.876 C 157.677 266.248,158.093 266.440,158.231 266.303 C 158.624 265.909,158.020 265.200,157.291 265.200 C 156.680 265.200,156.681 265.253,157.305 265.876 M146.673 266.153 C 146.267 267.212,146.350 267.897,146.800 267.200 C 147.145 266.667,147.189 266.667,147.200 267.200 C 147.211 267.733,147.255 267.733,147.600 267.200 C 148.092 266.438,148.111 265.884,147.634 266.179 C 147.433 266.303,147.196 266.188,147.108 265.923 C 147.009 265.626,146.841 265.715,146.673 266.153 M211.375 266.900 L 210.200 268.200 211.500 267.025 C 212.712 265.930,212.984 265.600,212.675 265.600 C 212.606 265.600,212.021 266.185,211.375 266.900 M149.817 267.899 C 149.457 268.839,149.580 269.449,150.000 268.800 C 150.213 268.470,150.393 268.380,150.400 268.600 C 150.412 269.003,151.182 268.001,151.194 267.567 C 151.207 267.075,150.024 267.361,149.817 267.899 M163.700 267.824 C 162.976 268.609,163.085 268.890,164.000 268.600 C 164.477 268.449,164.800 268.528,164.800 268.797 C 164.800 269.044,164.980 269.136,165.200 269.000 C 165.420 268.864,165.600 268.573,165.600 268.353 C 165.600 268.133,165.431 268.057,165.225 268.185 C 165.018 268.312,164.703 268.162,164.525 267.850 C 164.252 267.373,164.120 267.369,163.700 267.824 M134.200 269.200 C 133.859 269.860,133.669 270.400,133.779 270.400 C 133.889 270.400,134.259 269.860,134.600 269.200 C 134.941 268.540,135.131 268.000,135.021 268.000 C 134.911 268.000,134.541 268.540,134.200 269.200 M146.832 268.324 C 146.814 268.612,146.625 268.739,146.412 268.607 C 146.198 268.475,145.922 268.870,145.798 269.484 C 145.674 270.098,145.398 271.153,145.186 271.828 C 144.718 273.316,144.707 273.600,145.113 273.600 C 145.285 273.600,145.671 272.745,145.971 271.700 C 146.271 270.655,146.687 269.581,146.896 269.313 C 147.105 269.046,147.183 268.596,147.069 268.313 C 146.904 267.902,146.857 267.904,146.832 268.324 M161.652 269.337 C 161.163 269.927,161.436 270.400,162.267 270.400 C 162.560 270.400,162.800 270.040,162.800 269.600 C 162.800 268.677,162.296 268.561,161.652 269.337 M149.033 270.609 C 148.884 271.206,148.860 271.793,148.981 271.914 C 149.101 272.035,149.200 271.913,149.200 271.643 C 149.200 271.373,149.367 271.256,149.571 271.382 C 149.987 271.639,150.607 270.074,150.237 269.703 C 150.106 269.573,149.997 269.722,149.994 270.033 C 149.989 270.500,149.928 270.505,149.647 270.062 C 149.396 269.667,149.233 269.812,149.033 270.609 M164.291 271.200 C 164.441 272.321,164.357 272.800,164.010 272.800 C 163.737 272.800,163.599 272.575,163.702 272.300 C 163.805 272.025,163.747 271.440,163.573 271.000 C 163.327 270.378,163.250 270.529,163.228 271.676 C 163.213 272.488,163.380 273.264,163.600 273.400 C 163.820 273.536,164.021 274.222,164.046 274.924 C 164.072 275.626,164.175 275.885,164.276 275.500 C 164.376 275.115,164.612 274.800,164.800 274.800 C 164.988 274.800,165.237 275.115,165.354 275.500 C 165.471 275.885,165.471 275.570,165.355 274.800 C 165.238 274.030,165.048 272.545,164.933 271.500 C 164.817 270.455,164.577 269.600,164.399 269.600 C 164.222 269.600,164.173 270.320,164.291 271.200 M206.400 270.100 C 206.400 270.265,223.410 270.400,244.200 270.400 C 264.990 270.400,282.000 270.265,282.000 270.100 C 282.000 269.935,264.990 269.800,244.200 269.800 C 223.410 269.800,206.400 269.935,206.400 270.100 M149.246 273.124 C 149.221 273.412,149.029 273.542,148.820 273.412 C 148.413 273.161,147.811 275.633,148.082 276.446 C 148.324 277.172,149.683 274.083,149.473 273.284 C 149.374 272.908,149.272 272.836,149.246 273.124 M129.906 275.687 C 129.565 276.552,130.313 277.060,130.935 276.386 C 131.289 276.003,131.288 275.946,130.930 276.146 C 130.662 276.297,130.400 276.108,130.318 275.705 C 130.186 275.046,130.159 275.044,129.906 275.687 M161.824 277.000 C 161.660 277.440,161.341 278.292,161.117 278.893 C 160.313 281.046,161.508 281.885,163.256 280.394 L 164.200 279.588 162.926 280.287 C 161.407 281.119,160.907 280.783,161.445 279.292 C 161.718 278.533,162.076 278.236,162.619 278.317 C 163.095 278.388,163.223 278.310,162.946 278.117 C 162.697 277.943,162.410 277.440,162.308 277.000 L 162.124 276.200 161.824 277.000 M148.000 280.715 C 148.000 281.214,149.360 282.400,149.931 282.400 C 150.764 282.400,150.430 281.790,149.200 281.064 C 148.540 280.674,148.000 280.517,148.000 280.715 " stroke="none" fill="#7c7c7c" fill-rule="evenodd"></path></g></svg>