<svg width="3276" height="4095" viewBox="0 0 3276 4095" xmlns="http://www.w3.org/2000/svg">
  <defs>
    <radialGradient id="stars1" cx="50%" cy="50%" r="50%" fx="50%" fy="50%">
      <stop offset="0%" style="stop-color:#FFFFFF;stop-opacity:0.8" />
      <stop offset="100%" style="stop-color:#FFFFFF;stop-opacity:0" />
    </radialGradient>
    <radialGradient id="stars2" cx="50%" cy="50%" r="50%" fx="50%" fy="50%">
      <stop offset="0%" style="stop-color:#FFFFFF;stop-opacity:0.6" />
      <stop offset="100%" style="stop-color:#FFFFFF;stop-opacity:0" />
    </radialGradient>
    <linearGradient id="skyGradient" x1="0%" y1="0%" x2="0%" y2="100%">
      <stop offset="0%" style="stop-color:#0F172A;stop-opacity:1" />
      <stop offset="40%" style="stop-color:#1E293B;stop-opacity:1" />
      <stop offset="100%" style="stop-color:#334155;stop-opacity:1" />
    </linearGradient>
    <radialGradient id="moonGlow" cx="50%" cy="50%" r="50%" fx="50%" fy="50%">
      <stop offset="0%" style="stop-color:#F8FAFC;stop-opacity:0.3" />
      <stop offset="100%" style="stop-color:#F8FAFC;stop-opacity:0" />
    </radialGradient>
  </defs>
  
  <!-- Background -->
  <rect width="100%" height="100%" fill="url(#skyGradient)" />
  
  <!-- Stars - Small -->
  <g opacity="0.8">
    <circle cx="246" cy="356" r="1" fill="#FFFFFF" />
    <circle cx="1023" cy="289" r="1" fill="#FFFFFF" />
    <circle cx="1876" cy="432" r="1" fill="#FFFFFF" />
    <circle cx="2345" cy="178" r="1" fill="#FFFFFF" />
    <circle cx="2987" cy="367" r="1" fill="#FFFFFF" />
    <circle cx="456" cy="789" r="1" fill="#FFFFFF" />
    <circle cx="1234" cy="654" r="1" fill="#FFFFFF" />
    <circle cx="1987" cy="876" r="1" fill="#FFFFFF" />
    <circle cx="2567" cy="723" r="1" fill="#FFFFFF" />
    <circle cx="3123" cy="912" r="1" fill="#FFFFFF" />
    <circle cx="345" cy="1234" r="1" fill="#FFFFFF" />
    <circle cx="1123" cy="1345" r="1" fill="#FFFFFF" />
    <circle cx="1876" cy="1123" r="1" fill="#FFFFFF" />
    <circle cx="2456" cy="1432" r="1" fill="#FFFFFF" />
    <circle cx="3012" cy="1234" r="1" fill="#FFFFFF" />
    <circle cx="567" cy="1654" r="1" fill="#FFFFFF" />
    <circle cx="1345" cy="1789" r="1" fill="#FFFFFF" />
    <circle cx="2098" cy="1567" r="1" fill="#FFFFFF" />
    <circle cx="2678" cy="1876" r="1" fill="#FFFFFF" />
    <circle cx="3234" cy="1654" r="1" fill="#FFFFFF" />
    <circle cx="456" cy="2123" r="1" fill="#FFFFFF" />
    <circle cx="1234" cy="2234" r="1" fill="#FFFFFF" />
    <circle cx="1987" cy="2012" r="1" fill="#FFFFFF" />
    <circle cx="2567" cy="2321" r="1" fill="#FFFFFF" />
    <circle cx="3123" cy="2123" r="1" fill="#FFFFFF" />
  </g>
  
  <!-- Stars - Medium -->
  <g opacity="0.9">
    <circle cx="546" cy="256" r="1.5" fill="#FFFFFF" />
    <circle cx="1323" cy="389" r="1.5" fill="#FFFFFF" />
    <circle cx="2176" cy="232" r="1.5" fill="#FFFFFF" />
    <circle cx="2645" cy="378" r="1.5" fill="#FFFFFF" />
    <circle cx="3087" cy="267" r="1.5" fill="#FFFFFF" />
    <circle cx="756" cy="689" r="1.5" fill="#FFFFFF" />
    <circle cx="1534" cy="554" r="1.5" fill="#FFFFFF" />
    <circle cx="2287" cy="776" r="1.5" fill="#FFFFFF" />
    <circle cx="2867" cy="623" r="1.5" fill="#FFFFFF" />
    <circle cx="3223" cy="812" r="1.5" fill="#FFFFFF" />
    <circle cx="645" cy="1134" r="1.5" fill="#FFFFFF" />
    <circle cx="1423" cy="1245" r="1.5" fill="#FFFFFF" />
    <circle cx="2176" cy="1023" r="1.5" fill="#FFFFFF" />
    <circle cx="2756" cy="1332" r="1.5" fill="#FFFFFF" />
    <circle cx="3112" cy="1134" r="1.5" fill="#FFFFFF" />
    <circle cx="867" cy="1554" r="1.5" fill="#FFFFFF" />
    <circle cx="1645" cy="1689" r="1.5" fill="#FFFFFF" />
    <circle cx="2398" cy="1467" r="1.5" fill="#FFFFFF" />
    <circle cx="2978" cy="1776" r="1.5" fill="#FFFFFF" />
    <circle cx="3134" cy="1554" r="1.5" fill="#FFFFFF" />
    <circle cx="756" cy="2023" r="1.5" fill="#FFFFFF" />
    <circle cx="1534" cy="2134" r="1.5" fill="#FFFFFF" />
    <circle cx="2287" cy="1912" r="1.5" fill="#FFFFFF" />
    <circle cx="2867" cy="2221" r="1.5" fill="#FFFFFF" />
    <circle cx="3223" cy="2023" r="1.5" fill="#FFFFFF" />
  </g>
  
  <!-- Stars - Large -->
  <g opacity="1">
    <circle cx="846" cy="456" r="2" fill="#FFFFFF" />
    <circle cx="1623" cy="289" r="2" fill="#FFFFFF" />
    <circle cx="2476" cy="432" r="2" fill="#FFFFFF" />
    <circle cx="2945" cy="278" r="2" fill="#FFFFFF" />
    <circle cx="3187" cy="467" r="2" fill="#FFFFFF" />
    <circle cx="1056" cy="889" r="2" fill="#FFFFFF" />
    <circle cx="1834" cy="754" r="2" fill="#FFFFFF" />
    <circle cx="2587" cy="976" r="2" fill="#FFFFFF" />
    <circle cx="3167" cy="823" r="2" fill="#FFFFFF" />
    <circle cx="923" cy="1012" r="2" fill="#FFFFFF" />
    <circle cx="945" cy="1334" r="2" fill="#FFFFFF" />
    <circle cx="1723" cy="1445" r="2" fill="#FFFFFF" />
    <circle cx="2476" cy="1223" r="2" fill="#FFFFFF" />
    <circle cx="3056" cy="1532" r="2" fill="#FFFFFF" />
    <circle cx="812" cy="1334" r="2" fill="#FFFFFF" />
    <circle cx="1167" cy="1754" r="2" fill="#FFFFFF" />
    <circle cx="1945" cy="1889" r="2" fill="#FFFFFF" />
    <circle cx="2698" cy="1667" r="2" fill="#FFFFFF" />
    <circle cx="3278" cy="1976" r="2" fill="#FFFFFF" />
    <circle cx="834" cy="1754" r="2" fill="#FFFFFF" />
    <circle cx="1056" cy="2223" r="2" fill="#FFFFFF" />
    <circle cx="1834" cy="2334" r="2" fill="#FFFFFF" />
    <circle cx="2587" cy="2112" r="2" fill="#FFFFFF" />
    <circle cx="3167" cy="2421" r="2" fill="#FFFFFF" />
    <circle cx="923" cy="2223" r="2" fill="#FFFFFF" />
  </g>
  
  <!-- Twinkling Stars -->
  <g opacity="0.7">
    <circle cx="1246" cy="356" r="3" fill="url(#stars1)">
      <animate attributeName="opacity" values="0.7;1;0.7" dur="3s" repeatCount="indefinite" />
    </circle>
    <circle cx="2023" cy="589" r="3" fill="url(#stars1)">
      <animate attributeName="opacity" values="0.7;1;0.7" dur="4s" repeatCount="indefinite" />
    </circle>
    <circle cx="2876" cy="232" r="3" fill="url(#stars1)">
      <animate attributeName="opacity" values="0.7;1;0.7" dur="5s" repeatCount="indefinite" />
    </circle>
    <circle cx="456" cy="1089" r="3" fill="url(#stars1)">
      <animate attributeName="opacity" values="0.7;1;0.7" dur="3.5s" repeatCount="indefinite" />
    </circle>
    <circle cx="1234" cy="954" r="3" fill="url(#stars1)">
      <animate attributeName="opacity" values="0.7;1;0.7" dur="4.5s" repeatCount="indefinite" />
    </circle>
    <circle cx="2987" cy="1176" r="3" fill="url(#stars1)">
      <animate attributeName="opacity" values="0.7;1;0.7" dur="3.2s" repeatCount="indefinite" />
    </circle>
    <circle cx="567" cy="1954" r="3" fill="url(#stars1)">
      <animate attributeName="opacity" values="0.7;1;0.7" dur="4.2s" repeatCount="indefinite" />
    </circle>
    <circle cx="1345" cy="2089" r="3" fill="url(#stars1)">
      <animate attributeName="opacity" values="0.7;1;0.7" dur="3.7s" repeatCount="indefinite" />
    </circle>
    <circle cx="2098" cy="1867" r="3" fill="url(#stars1)">
      <animate attributeName="opacity" values="0.7;1;0.7" dur="4.7s" repeatCount="indefinite" />
    </circle>
  </g>
  
  <!-- Moon -->
  <circle cx="2600" cy="500" r="200" fill="#F1F5F9" />
  <circle cx="2600" cy="500" r="400" fill="url(#moonGlow)" />
  <circle cx="2500" cy="450" r="50" fill="#E2E8F0" />
  <circle cx="2650" cy="550" r="40" fill="#E2E8F0" />
  <circle cx="2700" cy="450" r="30" fill="#E2E8F0" />
  
  <!-- Mountains -->
  <path d="M0,3000 L500,2600 L800,2800 L1200,2500 L1600,2700 L2000,2400 L2400,2600 L2800,2300 L3276,2700 L3276,4095 L0,4095 Z" fill="#1E293B" />
  <path d="M0,3200 L400,2900 L700,3000 L1100,2800 L1500,3000 L1900,2700 L2300,2900 L2700,2600 L3276,3000 L3276,4095 L0,4095 Z" fill="#0F172A" />
  
  <!-- Distant City Lights -->
  <g opacity="0.6">
    <rect x="500" y="3100" width="4" height="8" fill="#FBBF24" />
    <rect x="520" y="3105" width="3" height="6" fill="#FBBF24" />
    <rect x="540" y="3102" width="5" height="10" fill="#FBBF24" />
    <rect x="570" y="3108" width="4" height="8" fill="#FBBF24" />
    <rect x="600" y="3100" width="3" height="6" fill="#FBBF24" />
    <rect x="630" y="3105" width="5" height="10" fill="#FBBF24" />
    <rect x="660" y="3102" width="4" height="8" fill="#FBBF24" />
    <rect x="690" y="3108" width="3" height="6" fill="#FBBF24" />
    <rect x="720" y="3100" width="5" height="10" fill="#FBBF24" />
    <rect x="750" y="3105" width="4" height="8" fill="#FBBF24" />
    <rect x="780" y="3102" width="3" height="6" fill="#FBBF24" />
    <rect x="810" y="3108" width="5" height="10" fill="#FBBF24" />
    <rect x="840" y="3100" width="4" height="8" fill="#FBBF24" />
    <rect x="870" y="3105" width="3" height="6" fill="#FBBF24" />
    <rect x="900" y="3102" width="5" height="10" fill="#FBBF24" />
    <rect x="930" y="3108" width="4" height="8" fill="#FBBF24" />
    <rect x="960" y="3100" width="3" height="6" fill="#FBBF24" />
    <rect x="990" y="3105" width="5" height="10" fill="#FBBF24" />
    <rect x="1020" y="3102" width="4" height="8" fill="#FBBF24" />
    <rect x="1050" y="3108" width="3" height="6" fill="#FBBF24" />
    <rect x="1080" y="3100" width="5" height="10" fill="#FBBF24" />
    <rect x="1110" y="3105" width="4" height="8" fill="#FBBF24" />
    <rect x="1140" y="3102" width="3" height="6" fill="#FBBF24" />
    <rect x="1170" y="3108" width="5" height="10" fill="#FBBF24" />
    <rect x="1200" y="3100" width="4" height="8" fill="#FBBF24" />
    <rect x="1230" y="3105" width="3" height="6" fill="#FBBF24" />
    <rect x="1260" y="3102" width="5" height="10" fill="#FBBF24" />
    <rect x="1290" y="3108" width="4" height="8" fill="#FBBF24" />
    <rect x="1320" y="3100" width="3" height="6" fill="#FBBF24" />
    <rect x="1350" y="3105" width="5" height="10" fill="#FBBF24" />
    <rect x="1380" y="3102" width="4" height="8" fill="#FBBF24" />
    <rect x="1410" y="3108" width="3" height="6" fill="#FBBF24" />
    <rect x="1440" y="3100" width="5" height="10" fill="#FBBF24" />
    <rect x="1470" y="3105" width="4" height="8" fill="#FBBF24" />
    <rect x="1500" y="3102" width="3" height="6" fill="#FBBF24" />
    <rect x="1530" y="3108" width="5" height="10" fill="#FBBF24" />
    <rect x="1560" y="3100" width="4" height="8" fill="#FBBF24" />
    <rect x="1590" y="3105" width="3" height="6" fill="#FBBF24" />
    <rect x="1620" y="3102" width="5" height="10" fill="#FBBF24" />
    <rect x="1650" y="3108" width="4" height="8" fill="#FBBF24" />
    <rect x="1680" y="3100" width="3" height="6" fill="#FBBF24" />
    <rect x="1710" y="3105" width="5" height="10" fill="#FBBF24" />
    <rect x="1740" y="3102" width="4" height="8" fill="#FBBF24" />
    <rect x="1770" y="3108" width="3" height="6" fill="#FBBF24" />
    <rect x="1800" y="3100" width="5" height="10" fill="#FBBF24" />
    <rect x="1830" y="3105" width="4" height="8" fill="#FBBF24" />
    <rect x="1860" y="3102" width="3" height="6" fill="#FBBF24" />
    <rect x="1890" y="3108" width="5" height="10" fill="#FBBF24" />
    <rect x="1920" y="3100" width="4" height="8" fill="#FBBF24" />
    <rect x="1950" y="3105" width="3" height="6" fill="#FBBF24" />
    <rect x="1980" y="3102" width="5" height="10" fill="#FBBF24" />
    <rect x="2010" y="3108" width="4" height="8" fill="#FBBF24" />
    <rect x="2040" y="3100" width="3" height="6" fill="#FBBF24" />
    <rect x="2070" y="3105" width="5" height="10" fill="#FBBF24" />
    <rect x="2100" y="3102" width="4" height="8" fill="#FBBF24" />
    <rect x="2130" y="3108" width="3" height="6" fill="#FBBF24" />
    <rect x="2160" y="3100" width="5" height="10" fill="#FBBF24" />
    <rect x="2190" y="3105" width="4" height="8" fill="#FBBF24" />
    <rect x="2220" y="3102" width="3" height="6" fill="#FBBF24" />
    <rect x="2250" y="3108" width="5" height="10" fill="#FBBF24" />
    <rect x="2280" y="3100" width="4" height="8" fill="#FBBF24" />
    <rect x="2310" y="3105" width="3" height="6" fill="#FBBF24" />
    <rect x="2340" y="3102" width="5" height="10" fill="#FBBF24" />
    <rect x="2370" y="3108" width="4" height="8" fill="#FBBF24" />
    <rect x="2400" y="3100" width="3" height="6" fill="#FBBF24" />
    <rect x="2430" y="3105" width="5" height="10" fill="#FBBF24" />
    <rect x="2460" y="3102" width="4" height="8" fill="#FBBF24" />
    <rect x="2490" y="3108" width="3" height="6" fill="#FBBF24" />
    <rect x="2520" y="3100" width="5" height="10" fill="#FBBF24" />
    <rect x="2550" y="3105" width="4" height="8" fill="#FBBF24" />
    <rect x="2580" y="3102" width="3" height="6" fill="#FBBF24" />
    <rect x="2610" y="3108" width="5" height="10" fill="#FBBF24" />
    <rect x="2640" y="3100" width="4" height="8" fill="#FBBF24" />
    <rect x="2670" y="3105" width="3" height="6" fill="#FBBF24" />
    <rect x="2700" y="3102" width="5" height="10" fill="#FBBF24" />
    <rect x="2730" y="3108" width="4" height="8" fill="#FBBF24" />
    <rect x="2760" y="3100" width="3" height="6" fill="#FBBF24" />
    <rect x="2790" y="3105" width="5" height="10" fill="#FBBF24" />
    <rect x="2820" y="3102" width="4" height="8" fill="#FBBF24" />
    <rect x="2850" y="3108" width="3" height="6" fill="#FBBF24" />
    <rect x="2880" y="3100" width="5" height="10" fill="#FBBF24" />
    <rect x="2910" y="3105" width="4" height="8" fill="#FBBF24" />
    <rect x="2940" y="3102" width="3" height="6" fill="#FBBF24" />
    <rect x="2970" y="3108" width="5" height="10" fill="#FBBF24" />
    <rect x="3000" y="3100" width="4" height="8" fill="#FBBF24" />
    <rect x="3030" y="3105" width="3" height="6" fill="#FBBF24" />
    <rect x="3060" y="3102" width="5" height="10" fill="#FBBF24" />
    <rect x="3090" y="3108" width="4" height="8" fill="#FBBF24" />
    <rect x="3120" y="3100" width="3" height="6" fill="#FBBF24" />
    <rect x="3150" y="3105" width="5" height="10" fill="#FBBF24" />
    <rect x="3180" y="3102" width="4" height="8" fill="#FBBF24" />
    <rect x="3210" y="3108" width="3" height="6" fill="#FBBF24" />
    <rect x="3240" y="3100" width="5" height="10" fill="#FBBF24" />
  </g>
</svg>
