<svg width="1207" height="929" viewBox="0 0 1207 929" xmlns="http://www.w3.org/2000/svg">
  <defs>
    <linearGradient id="grad1" x1="0%" y1="0%" x2="100%" y2="100%">
      <stop offset="0%" style="stop-color:#1E293B;stop-opacity:1" />
      <stop offset="100%" style="stop-color:#334155;stop-opacity:1" />
    </linearGradient>
    <linearGradient id="grad2" x1="0%" y1="0%" x2="100%" y2="0%">
      <stop offset="0%" style="stop-color:#4F46E5;stop-opacity:1" />
      <stop offset="100%" style="stop-color:#8B5CF6;stop-opacity:1" />
    </linearGradient>
  </defs>
  <rect width="100%" height="100%" fill="url(#grad1)" rx="20" ry="20" />
  
  <!-- Dashboard Header -->
  <rect x="40" y="40" width="1127" height="80" rx="10" ry="10" fill="#1E293B" />
  <circle cx="80" cy="80" r="20" fill="#8B5CF6" />
  <rect x="120" y="70" width="120" height="20" rx="5" ry="5" fill="#475569" />
  <rect x="900" y="70" width="80" height="20" rx="5" ry="5" fill="#475569" />
  <rect x="1000" y="70" width="80" height="20" rx="5" ry="5" fill="#475569" />
  <rect x="1100" y="70" width="30" height="20" rx="5" ry="5" fill="#475569" />
  
  <!-- Main Content -->
  <rect x="40" y="160" width="700" height="400" rx="10" ry="10" fill="#1E293B" />
  <text x="70" y="200" font-family="Arial" font-size="24" fill="#E2E8F0">Payment Dashboard</text>
  
  <!-- Chart -->
  <rect x="70" y="230" width="640" height="300" rx="5" ry="5" fill="#0F172A" />
  <path d="M70,480 L710,480" stroke="#334155" stroke-width="2" />
  <path d="M70,430 L710,430" stroke="#334155" stroke-width="1" />
  <path d="M70,380 L710,380" stroke="#334155" stroke-width="1" />
  <path d="M70,330 L710,330" stroke="#334155" stroke-width="1" />
  <path d="M70,280 L710,280" stroke="#334155" stroke-width="1" />
  
  <!-- Chart Bars -->
  <rect x="120" y="380" width="30" height="100" rx="5" ry="5" fill="url(#grad2)" />
  <rect x="180" y="350" width="30" height="130" rx="5" ry="5" fill="url(#grad2)" />
  <rect x="240" y="400" width="30" height="80" rx="5" ry="5" fill="url(#grad2)" />
  <rect x="300" y="320" width="30" height="160" rx="5" ry="5" fill="url(#grad2)" />
  <rect x="360" y="280" width="30" height="200" rx="5" ry="5" fill="url(#grad2)" />
  <rect x="420" y="330" width="30" height="150" rx="5" ry="5" fill="url(#grad2)" />
  <rect x="480" y="370" width="30" height="110" rx="5" ry="5" fill="url(#grad2)" />
  <rect x="540" y="300" width="30" height="180" rx="5" ry="5" fill="url(#grad2)" />
  <rect x="600" y="340" width="30" height="140" rx="5" ry="5" fill="url(#grad2)" />
  <rect x="660" y="310" width="30" height="170" rx="5" ry="5" fill="url(#grad2)" />
  
  <!-- Side Panel -->
  <rect x="780" y="160" width="387" height="400" rx="10" ry="10" fill="#1E293B" />
  <text x="810" y="200" font-family="Arial" font-size="20" fill="#E2E8F0">Recent Transactions</text>
  
  <!-- Transaction Items -->
  <rect x="810" y="230" width="327" height="60" rx="5" ry="5" fill="#0F172A" />
  <circle cx="840" cy="260" r="15" fill="#4F46E5" />
  <rect x="870" y="245" width="150" height="15" rx="2" ry="2" fill="#475569" />
  <rect x="870" y="270" width="100" height="10" rx="2" ry="2" fill="#334155" />
  <rect x="1080" y="250" width="40" height="20" rx="2" ry="2" fill="#4F46E5" />
  
  <rect x="810" y="300" width="327" height="60" rx="5" ry="5" fill="#0F172A" />
  <circle cx="840" cy="330" r="15" fill="#8B5CF6" />
  <rect x="870" y="315" width="150" height="15" rx="2" ry="2" fill="#475569" />
  <rect x="870" y="340" width="100" height="10" rx="2" ry="2" fill="#334155" />
  <rect x="1080" y="320" width="40" height="20" rx="2" ry="2" fill="#8B5CF6" />
  
  <rect x="810" y="370" width="327" height="60" rx="5" ry="5" fill="#0F172A" />
  <circle cx="840" cy="400" r="15" fill="#EC4899" />
  <rect x="870" y="385" width="150" height="15" rx="2" ry="2" fill="#475569" />
  <rect x="870" y="410" width="100" height="10" rx="2" ry="2" fill="#334155" />
  <rect x="1080" y="390" width="40" height="20" rx="2" ry="2" fill="#EC4899" />
  
  <rect x="810" y="440" width="327" height="60" rx="5" ry="5" fill="#0F172A" />
  <circle cx="840" cy="470" r="15" fill="#4F46E5" />
  <rect x="870" y="455" width="150" height="15" rx="2" ry="2" fill="#475569" />
  <rect x="870" y="480" width="100" height="10" rx="2" ry="2" fill="#334155" />
  <rect x="1080" y="460" width="40" height="20" rx="2" ry="2" fill="#4F46E5" />
  
  <!-- Bottom Cards -->
  <rect x="40" y="600" width="350" height="200" rx="10" ry="10" fill="#1E293B" />
  <text x="70" y="640" font-family="Arial" font-size="18" fill="#E2E8F0">Monthly Revenue</text>
  <text x="70" y="690" font-family="Arial" font-size="28" fill="#8B5CF6">$24,568</text>
  <text x="70" y="730" font-family="Arial" font-size="14" fill="#64748B">+12.5% from last month</text>
  
  <rect x="430" y="600" width="350" height="200" rx="10" ry="10" fill="#1E293B" />
  <text x="460" y="640" font-family="Arial" font-size="18" fill="#E2E8F0">Total Customers</text>
  <text x="460" y="690" font-family="Arial" font-size="28" fill="#4F46E5">1,482</text>
  <text x="460" y="730" font-family="Arial" font-size="14" fill="#64748B">+8.2% from last month</text>
  
  <rect x="820" y="600" width="350" height="200" rx="10" ry="10" fill="#1E293B" />
  <text x="850" y="640" font-family="Arial" font-size="18" fill="#E2E8F0">Conversion Rate</text>
  <text x="850" y="690" font-family="Arial" font-size="28" fill="#EC4899">3.6%</text>
  <text x="850" y="730" font-family="Arial" font-size="14" fill="#64748B">+1.2% from last month</text>
</svg>
